<svg width="150" height="31" fill="none" xmlns="http://www.w3.org/2000/svg"><path d="M21.569 25.415L1.535 11.595c-2.03-1.4-1.34-4.315 1.192-5L24.019.814a3.015 3.015 0 014.038 2.783l-1.262 19.597c-.15 2.326-3.196 3.62-5.226 2.22z" fill="url(#paint0_linear_0:219)"/><path d="M15.215 28.826L3.413 5.746A3.22 3.22 0 016.77 1.098l21.872 3.376a3.22 3.22 0 012.375 4.647L20.942 28.827a3.22 3.22 0 01-5.727 0z" fill="url(#paint1_linear_0:219)"/><path d="M28.003 4.375L17.1 2.692 3.713 6.327l5.343 10.454 12.513 8.634c.276.188.58.332.9.428l4.753-9.295.781-12.173z" fill="#001A49"/><path fill-rule="evenodd" clip-rule="evenodd" d="M85.28 5.024a2.05 2.05 0 00-2.048 2.05 2.07 2.07 0 002.049 2.048 2.05 2.05 0 100-4.098zm1.71 5.1h-3.417v11.383h3.416V10.125zm13.281 9.829a5.718 5.718 0 001.47-4.137 5.717 5.717 0 00-5.44-6.01 4.275 4.275 0 00-3.393 1.388v-1.07h-3.415v15.937h3.415v-5.623a4.275 4.275 0 003.392 1.389 5.717 5.717 0 003.971-1.874zm-4.7-6.779a2.71 2.71 0 012.755 2.642 2.599 2.599 0 01-2.709 2.778 2.71 2.71 0 01-.046-5.42z" fill="#001A49"/><path d="M112.281 18.09c0 2.62-2.277 3.735-4.735 3.735a4.984 4.984 0 01-4.895-2.71l2.959-1.684a1.871 1.871 0 001.936 1.34c.819 0 1.228-.252 1.228-.706 0-1.253-5.6-.592-5.6-4.532 0-2.48 2.093-3.733 4.466-3.733a4.98 4.98 0 014.439 2.436l-2.913 1.571a1.654 1.654 0 00-1.526-1.005c-.591 0-.955.223-.955.638-.004 1.306 5.596.44 5.596 4.65zm12.482-7.966v11.384h-3.415v-1.072a3.896 3.896 0 01-3.256 1.389c-2.3 0-4.257-1.64-4.257-4.714v-6.987h3.415v6.49a1.875 1.875 0 001.981 2.072c1.251-.001 2.121-.73 2.121-2.346v-6.216h3.411zm19.573 4.393v6.99h-3.415v-6.693c0-1.138-.547-1.867-1.639-1.867-1.139 0-1.776.798-1.776 2.14v6.42h-3.416v-6.693c0-1.138-.546-1.867-1.639-1.867-1.138 0-1.775.798-1.775 2.14v6.42h-3.415V10.125h3.42v1.043a3.494 3.494 0 013.051-1.366 3.39 3.39 0 012.983 1.502 3.75 3.75 0 013.302-1.502c2.613.005 4.319 1.87 4.319 4.716zm2.893-4.463a2.535 2.535 0 100-5.07 2.535 2.535 0 000 5.07z" fill="#001A49"/><path fill-rule="evenodd" clip-rule="evenodd" d="M36.608 4.888h3.416v16.62h-3.416V4.887zm5.35 10.928a6.03 6.03 0 116.03 6.01 5.966 5.966 0 01-6.03-6.01zm5.989-2.55a2.619 2.619 0 012.663 2.55h.004a2.554 2.554 0 01-2.623 2.686 2.619 2.619 0 01-.044-5.236zm19.691-3.146v10.816c0 3.824-2.983 5.44-6.01 5.44a5.82 5.82 0 01-5.396-2.755l2.914-1.685a2.603 2.603 0 002.596 1.435 2.27 2.27 0 002.568-2.435v-1.048a4.045 4.045 0 01-3.324 1.48 5.786 5.786 0 010-11.566 4.044 4.044 0 013.324 1.48V10.12h3.328zm-4.946 2.837a2.758 2.758 0 011.623 2.627v.004a2.577 2.577 0 01-2.757 2.642 2.758 2.758 0 111.134-5.273zm6.88 2.85a6.03 6.03 0 116.03 6.012 5.967 5.967 0 01-6.03-6.003v-.008zm5.989-2.552a2.62 2.62 0 012.663 2.553v.008a2.554 2.554 0 01-2.618 2.679 2.62 2.62 0 01-.045-5.24z" fill="#001A49"/><defs><linearGradient id="paint0_linear_0:219" x1="14.689" y1="31.457" x2="27.203" y2="12.436" gradientUnits="userSpaceOnUse"><stop stop-color="#FFD7A9"/><stop offset="1" stop-color="#FFAE70"/></linearGradient><linearGradient id="paint1_linear_0:219" x1="19.024" y1="37.553" x2="39.04" y2="17.745" gradientUnits="userSpaceOnUse"><stop stop-color="#CD10FF"/><stop offset="1" stop-color="#9F06FF"/></linearGradient></defs></svg>